<?xml version="1.0" encoding="UTF-8"?>
<svg id="uuid-4b826530-e979-4102-afbb-5ff6dc340e8f" xmlns="http://www.w3.org/2000/svg" xmlns:xlink="http://www.w3.org/1999/xlink" viewBox="0 0 293.13 115.1"><defs><linearGradient id="uuid-319ade27-0be0-4c1c-bfb8-088c19c6fb36" x1="-531.54" y1="-124.41" x2="-530.54" y2="-124.41" gradientTransform="translate(52353.01 45890) rotate(54.4) scale(127.49 -127.49)" gradientUnits="userSpaceOnUse"><stop offset="0" stop-color="#1ba7e0"/><stop offset=".32" stop-color="#1ba7e0"/><stop offset=".37" stop-color="#1ea4db"/><stop offset=".42" stop-color="#239acf"/><stop offset=".47" stop-color="#288cbf"/><stop offset=".52" stop-color="#2c7aaa"/><stop offset=".57" stop-color="#2d6494"/><stop offset=".62" stop-color="#2a4c7b"/><stop offset=".67" stop-color="#273063"/><stop offset=".69" stop-color="#252159"/><stop offset="1" stop-color="#252159"/></linearGradient></defs><g><path d="M293.06,25.13c-.01-1.66-1.23-2.85-2.87-2.87-3.31-.04-6.62-.04-9.92,0-1.39,.02-2.62,1.15-2.63,2.65-.04,5.58,0,11.16-.03,16.74,0,.18-.02,.36-.04,.54-.03,.19-.07,.37-.13,.55s-.13,.35-.21,.52-.18,.33-.28,.49c-.11,.16-.22,.31-.35,.45s-.26,.27-.4,.4-.29,.23-.45,.34c-.16,.1-.32,.19-.49,.27-.17,.08-.35,.14-.53,.19-.1,.03-.2,.05-.3,.07-.1,0-.21,0-.31,0-.11,0-.23,0-.34,0h-11.46l-.1-.09c-.01-.21-.02-.41-.02-.62V25.49c0-.41-.07-.81-.19-1.2-.37-1.22-1.46-2-2.82-2.01-2.99-.02-5.98-.01-8.96-.01-.46,0-.92,.01-1.38,.1-1.02,.2-2.1,1.35-2.1,2.45,0,10.52,0,21.03,0,31.55,0,.56-.04,1.1-.18,1.65-.33,1.31-1.72,2.61-3.08,2.79l-.12,.04c-.44,.12-.9,.07-1.34,.05-1.64-.06-3.06,1.08-3.04,2.97,0,1-.17,2,.22,2.99,.39,1,1.6,1.73,2.41,1.73,3.67-.01,7.33,0,11,0,.41,0,.81-.04,1.22-.1,2.13-.29,3.94-1.21,5.45-2.7,1.96-1.92,2.86-4.31,2.92-7.03,.04-1.69,.02-3.38,0-5.07-.01-.43,.09-.56,.54-.56,4.29,.02,8.57,0,12.86,0,.33,0,6.35,0,7.73,0,1.02,0,2.02-.14,2.99-.46,4.15-1.38,6.67-4.86,6.75-8.83,.11-6.25,.03-12.48,0-18.72h-.01Z" fill="#fff"/><path d="M159.15,37.71c-3.19-.06-6.39-.03-9.58,0-1.63,0-2.93,1.21-2.89,2.94,.05,2.46,0,4.92,0,7.38,0,2.99,.02,5.97,0,8.96,0,.42-.08,.85-.22,1.25-.3,.88-.91,1.66-1.7,2.15-.33,.21-.68,.37-1.06,.46-.09,.02-.18,.04-.28,.05-.3,.03-.6,.02-.9,.02-.33,0-.65,0-.98,0h-21.86c-.22,0-.45,.04-.66-.08l-.1-.02c-1.36-.05-3.15-1.59-3.19-3.48,.03-.17,.07-.33-.03-.49v-1.91c0-4.83,0-9.67-.02-14.51l.02-.04-.05-.1c-.19-1.56-1.36-2.53-2.86-2.56-3.23-.06-6.46-.03-9.7,0-1.64,0-2.83,1.36-2.83,2.86,.03,6.23,0,12.47,0,18.71,0,.41-.04,.83,.04,1.23,.3,1.51,.87,2.92,1.79,4.17,1,1.35,2.29,2.37,3.79,3.09,1.43,.68,2.96,.85,4.54,.84,13.83-.02,27.66-.01,41.49-.02,.59,0,1.18-.02,1.78-.1,2.11-.29,3.91-1.21,5.42-2.66,1.95-1.87,2.92-4.23,2.95-6.9,.06-6.07,.05-12.13,0-18.2,.02-1.79-1.08-2.98-2.92-3.01h0Z" fill="#fff"/><path d="M182.22,22.35c-3.19-.02-6.39,0-9.58,0-1.49,0-2.64,1.06-2.75,2.58,0,.14-.02,.13-.03,.6-.45,13.43,.03,40.46,.03,40.46,.07,1.51,1.32,2.55,2.45,2.56,3.29,.04,6.58,.03,9.87,.01,1.59-.01,2.82-1.31,2.82-2.9V25.21c0-1.55-1.25-2.85-2.81-2.86Z" fill="#fff"/><path d="M231.63,24.71c-.22-1.46-1.43-2.46-2.97-2.46-7.8,0-15.59-.01-23.39,0-1.29,0-2.58-.09-3.86,.1-1.24,.18-2.41,.54-3.5,1.16-1.22,.69-2.22,1.64-3.05,2.74-1.05,1.41-1.76,3.03-1.78,4.78-.07,6.46-.03,12.92-.04,19.37,0,1.33,1.21,2.73,2.7,2.72,1.41,0,2.82,0,4.23,0,5.24,0,10.48,0,15.72,0,.48,0,.59,.13,.58,.59-.03,1.09,.03,2.18-.02,3.27,0,.21-.03,.42-.07,.62-.08,.45-.24,.89-.46,1.3-.21,.39-.49,.75-.82,1.05s-.71,.54-1.12,.71c-.09,.04-.18,.07-.27,.1-.15,.05-.3,.09-.45,.1-.16,.02-.33,.02-.49,.03-.32,0-.64,0-.95,0-.66,0-1.31,0-1.97,0h-9.95c-.66,0-1.33,0-1.99,0-.66,0-1.33,0-1.99,0-1.06,0-1.84,.56-2.37,1.52-.39,.7-.31,1.44-.31,2.17,0,.61-.1,1.23,.07,1.84,.35,1.29,1.44,2.17,3.18,2.16,8.46-.04,16.91-.02,25.37-.01,.75,0,1.5-.01,2.22-.17,1.76-.41,3.37-1.18,4.69-2.44,1.85-1.77,2.88-3.94,3.07-6.49h0v-.02h0c0-.23,0-.49,0-.68V25.15c0-.1,0-.2,0-.3v-.14h0Zm-15.39,16.77c0,2.24-1.76,3.96-4.01,3.97-1.11,0-2.22,0-3.32,0-.35,0-.44-.11-.44-.45,0-1.9,0-3.79,0-5.69v-5.46c0-2.14,1.67-3.85,3.81-3.88,1.16-.02,2.33,0,3.49,0,.38,0,.47,.11,.47,.48,0,3.67,0,7.35,0,11.03h0Z" fill="#fff"/><circle cx="123.36" cy="29.94" r="7.82" fill="#fff"/><circle cx="139.42" cy="29.94" r="7.82" fill="#fff"/><path d="M277,53.41c-4.32,0-7.82,3.5-7.82,7.82s3.5,7.82,7.82,7.82,7.82-3.5,7.82-7.82c-.01-4.32-3.51-7.82-7.82-7.82Z" fill="#fff"/></g><g><polygon points="130.23 105.78 132.13 107.75 134.1 105.78 132.15 103.82 130.23 105.78" fill="#fff"/><polygon points="134.89 105.75 136.8 107.73 138.76 105.75 136.82 103.8 134.89 105.75" fill="#fff"/><rect x="286.82" y="85.56" width="2.3" height="15.55" fill="#fff"/><path d="M137.22,100.01c.41-.37,.75-.83,1-1.41s.39-1.23,.39-2.02c0-.27-.02-.58-.06-.93-.04-.36-.09-.73-.15-1.12-.06-.39-.12-.77-.2-1.14-.07-.37-.14-.72-.2-1.03s-.11-.57-.16-.78-.09-.34-.1-.39l-2.18,.67c.04,.11,.07,.29,.12,.51s.1,.49,.16,.78c.06,.29,.11,.6,.17,.93,.06,.32,.11,.65,.15,.96,.05,.31,.07,.61,.11,.87,.02,.27,.04,.5,.04,.67,0,.52-.09,.92-.25,1.22s-.36,.51-.58,.66-.45,.24-.67,.27-.4,.05-.52,.05h-19.92c-.36,0-.7-.1-1.01-.3-.3-.2-.6-.45-.87-.76-.27-.3-.54-.65-.78-1.01s-.5-.73-.73-1.08l-4.73-7.22-1.94,1.27,4.57,6.96c.2,.3,.32,.55,.37,.72,.06,.19,.09,.31,.09,.4,0,.12-.04,.22-.11,.3-.09,.17-.27,.32-.57,.46-.31,.14-.7,.24-1.17,.31-.41,.06-.76,.09-1.05,.09h-.62c-.35,0-.7,0-1.05-.05-.46-.04-.9-.11-1.31-.21s-.76-.24-1.05-.4l-1.01-.58-1.14,2.02,1,.58c.3,.17,.63,.32,1.01,.45s.76,.22,1.17,.3c.4,.07,.81,.14,1.23,.17s.85,.05,1.26,.05c.34,0,.67,0,.98-.04s.62-.06,.9-.1c1.53-.22,2.6-.73,3.2-1.56,1.02,1.01,2.14,1.51,3.35,1.51h19.92c.52,0,1.03-.09,1.54-.27,.55-.14,1.01-.41,1.42-.78h0Z" fill="#fff"/><polygon points="244.86 84.49 243.17 82.73 241.42 84.49 243.13 86.18 244.86 84.49" fill="#fff"/><polygon points="245.45 89.99 247.4 88.03 245.43 86.07 243.53 88.03 245.45 89.99" fill="#fff"/><polygon points="242.73 88.01 240.77 86.04 238.86 88.01 240.79 89.96 242.73 88.01" fill="#fff"/><rect x="270.41" y="83.73" width="2.3" height="17.37" fill="#fff"/><polygon points="176.38 105.46 178.48 107.59 180.57 105.49 178.45 103.37 176.38 105.46" fill="#fff"/><path d="M265.19,92.62c-.39-.51-.88-.92-1.47-1.22-.58-.3-1.28-.46-2.08-.46-.68,0-1.28,.11-1.77,.34s-.9,.52-1.23,.88-.62,.78-.83,1.26-.41,.96-.57,1.46-.3,.98-.42,1.46-.26,.88-.4,1.26c-.15,.36-.32,.66-.52,.88s-.45,.34-.76,.34h-1.67c-.81,0-1.42-.17-1.82-.51-.4-.34-.61-.88-.62-1.63v-3.77h-2.3v3.77c-.01,.4-.09,.73-.21,1.01s-.27,.5-.46,.66c-.19,.17-.4,.3-.63,.36-.24,.07-.47,.11-.71,.11-.83,0-1.44-.19-1.82-.55s-.57-.93-.57-1.73v-3.66h-2.29v3.72c0,.49-.07,.86-.22,1.16-.15,.29-.32,.51-.52,.66s-.41,.26-.62,.3-.4,.07-.55,.09c-.81,0-1.41-.19-1.79-.55s-.57-.93-.57-1.72v-3.66h-2.3v3.72c0,.35-.02,.66-.09,.93s-.17,.5-.36,.7-.42,.34-.75,.44-.75,.15-1.26,.15h-25.93l-.09,2.3c.55,0,1.11,.02,1.69,.07s1.13,.14,1.63,.27c.51,.12,.93,.3,1.29,.51s.58,.49,.68,.8c.04,.11,.06,.22,.06,.34,0,.12-.02,.25-.07,.36-.09,.24-.22,.46-.44,.66s-.46,.39-.77,.56-.66,.31-1.03,.44c-.39,.12-.8,.21-1.23,.29-.44,.07-.88,.1-1.34,.1h-3.47c-.86,0-1.64-.17-2.34-.54s-1.24-.87-1.67-1.54c-.55-.88-.82-1.94-.82-3.19,0-.25,.01-.5,.02-.76,.12-1.56,.63-3.28,1.54-5.2l-2.04-1c-.55,1.13-.98,2.24-1.28,3.3-.31,1.06-.47,1.89-.51,2.48s-.05,.98-.05,1.19c0,.72,.07,1.42,.22,2.07,.19,.86,.5,1.63,.93,2.33,.65,1,1.48,1.77,2.51,2.33,1.02,.56,2.18,.85,3.46,.85h3.47c.83,0,1.62-.07,2.36-.22s1.43-.36,2.04-.63,1.13-.61,1.58-1.01,.77-.83,.98-1.31,.31-.97,.31-1.49v-.17c-.05-.6-.24-1.22-.57-1.89h18.83c1.49,0,2.65-.36,3.47-1.09,.06-.05,.12-.1,.17-.17,.81,.82,1.93,1.24,3.36,1.27h.16c.55,0,1.08-.14,1.61-.35s1-.54,1.41-.97c.83,.87,2.02,1.32,3.53,1.32,.57,0,1.12-.1,1.62-.29,.51-.19,.96-.47,1.36-.86l.19-.2h.01c.41,.45,.91,.78,1.51,1.01,.6,.22,1.29,.34,2.07,.34h1.67c1.05,0,1.9-.4,2.58-1.18,.5,.27,.96,.52,1.38,.75s.82,.4,1.19,.56c.39,.15,.76,.26,1.12,.35,.36,.07,.75,.12,1.14,.12,.19,0,.41-.02,.67-.06s.54-.12,.81-.25c.29-.12,.56-.3,.83-.54s.52-.55,.73-.93c.22-.39,.4-.86,.54-1.43,.14-.57,.2-1.24,.2-2.03,0-.71-.1-1.41-.29-2.07-.15-.66-.44-1.24-.82-1.75h0Zm-1.16,5.06c-.06,.34-.14,.61-.24,.83-.1,.21-.2,.39-.31,.5s-.24,.21-.35,.26c-.11,.06-.22,.09-.32,.1h-.24c-.26,0-.52-.04-.8-.11s-.56-.19-.87-.31-.65-.3-1-.49c-.36-.19-.75-.39-1.17-.6,.12-.37,.25-.75,.34-1.13,.1-.37,.2-.73,.29-1.08,.1-.35,.2-.67,.31-.96,.11-.3,.26-.56,.42-.77,.17-.22,.37-.39,.62-.52s.55-.19,.91-.19c.39,0,.71,.06,.97,.2,.27,.14,.5,.31,.68,.52s.34,.45,.45,.7,.2,.5,.25,.73c.06,.24,.1,.46,.11,.65s.02,.34,.02,.42c0,.49-.02,.9-.09,1.23h0Z" fill="#fff"/><path d="M278.64,100.48c0,.88-.1,1.65-.29,2.29s-.49,1.17-.88,1.58c-.4,.41-.91,.72-1.52,.92s-1.34,.3-2.18,.3h-1.68v2.3h1.68c1.18,0,2.21-.17,3.11-.51s1.64-.82,2.25-1.46c.6-.63,1.06-1.41,1.36-2.33,.3-.91,.46-1.95,.46-3.11v-7.6h-2.3v7.62h-.01Z" fill="#fff"/><path d="M287.23,81.56c-.61,0-1.17,.02-1.67,.09s-.96,.2-1.38,.41c-.98,.49-1.65,1.38-2.03,2.69l1.93,.57c.11-.37,.25-.67,.4-.9s.35-.4,.58-.52,.54-.2,.88-.25c.35-.04,.78-.06,1.29-.06h5.89v-2.04h-5.9Z" fill="#fff"/><path d="M181.81,92.62c-.81-.31-1.49-.58-2.07-.8s-1.07-.39-1.47-.54-.73-.25-1-.32c-.26-.07-.47-.14-.62-.17s-.27-.06-.35-.06h-.2c-2,0-3.32,1.21-3.94,3.61l2.23,.58c.12-.46,.25-.82,.39-1.08s.29-.45,.42-.57c.15-.12,.3-.2,.45-.22s.3-.04,.44-.04c.15,.02,.46,.11,.93,.26s1.02,.34,1.68,.57c.65,.24,1.37,.5,2.15,.8s1.57,.61,2.35,.92c-.57,.34-1.23,.68-1.99,1.07-.76,.37-1.57,.72-2.43,1.05s-1.75,.58-2.69,.81-1.85,.32-2.76,.32h-18.25c-.36,0-.7-.1-1.01-.3-.3-.2-.6-.45-.87-.76-.27-.3-.54-.65-.78-1.01s-.5-.73-.73-1.08l-4.73-7.22-1.94,1.27,4.57,6.96c.2,.3,.32,.55,.37,.72,.06,.19,.09,.31,.09,.4,0,.12-.04,.22-.11,.3-.09,.17-.27,.32-.57,.46-.31,.14-.7,.24-1.17,.31-.41,.06-.76,.09-1.05,.09h-.62c-.35,0-.7,0-1.05-.05-.46-.04-.9-.11-1.31-.21s-.76-.24-1.05-.4l-1.01-.58-1.14,2.02,1,.58c.3,.17,.63,.32,1.01,.45s.76,.22,1.17,.3c.4,.07,.81,.14,1.23,.17s.85,.05,1.26,.05c.34,0,.67,0,.98-.04s.62-.06,.9-.1c1.53-.22,2.6-.73,3.2-1.56,1.02,1.01,2.14,1.51,3.35,1.51h18.25c1.05,0,2.08-.11,3.12-.35,1.03-.24,2.04-.52,2.99-.87s1.84-.73,2.68-1.14,1.56-.8,2.18-1.17c.62-.36,1.12-.67,1.49-.92s.58-.4,.63-.42l-.31-2.03-4.28-1.56h0Z" fill="#fff"/></g><path d="M47.21,11.68c.28,0,.53,.14,.75,.28,.25,.16,.48,.34,.72,.51,.53,.37,1.06,.75,1.59,1.13,.18,.13,.36,.26,.54,.4,.78,.58,1.54,1.17,2.3,1.78,.92,.74,1.83,1.49,2.72,2.26,1.03,.89,2.04,1.8,3.03,2.74,1.11,1.04,2.19,2.11,3.24,3.2,1.15,1.19,2.26,2.4,3.35,3.65,1.15,1.33,2.27,2.69,3.34,4.09,1.13,1.47,2.21,2.98,3.23,4.52,1.07,1.61,2.08,3.26,3.02,4.94,.98,1.74,1.88,3.53,2.7,5.35,.85,1.88,1.61,3.8,2.28,5.75,.69,2.01,1.27,4.06,1.74,6.13,.49,2.15,.86,4.32,1.11,6.51,.26,2.28,.38,4.58,.37,6.87-.06,9.48-2.71,18.55-8.57,26.08-2.59,3.32-5.62,6.33-9.03,8.8-6.21,4.49-13.6,7-21.24,7.43-7.11,.4-14.2-.84-20.64-3.94-7.53-3.63-13.87-9.65-17.9-16.98C1.24,84.76-.55,74.76,1.2,65.3c1.03-5.6,3.33-10.94,6.58-15.6,3.41-4.89,7.94-8.69,12.77-12.1,2.76-1.95,5.51-3.98,7.68-6.61,3.57-4.34,5.83-10.02,6.1-15.65,.25-5.28-1.1-10.49-3.14-15.33,.02,.04-.04-.04,.11,.08,.08,.06,.17,.12,.24,.17,.46,.32,.88,.7,1.31,1.07,.36,.31,.72,.63,1.07,.95,.58,.53,1.15,1.08,1.71,1.64,3.24,3.25,6.08,6.94,8.25,10.99,2.76,5.15,4.38,10.9,4.29,16.77-.07,4.71-1.14,9.58-3.16,13.84-1.79,3.79-4.63,7.03-7.38,10.16-2.87,3.26-4.98,6.75-6.4,10.89-1.51,4.41-1.73,9.4-.65,13.93,1.96,8.22,8.32,15.07,16.1,18.17,8.46,3.38,18.49,2.63,25.78-3.05,.63-.49,1.23-1.01,1.81-1.56,2.49-2.36,4.5-5.17,6.15-8.17-1.31,2.39-3.79,4.52-5.9,6.16-4.89,3.8-10.92,5.85-17.13,5.4-8.22-.59-16.15-5.62-19.7-13.13-2.81-5.94-3.21-13.59-.42-19.61,1.3-2.81,2.98-5.6,4.98-7.95,2.11-2.47,4.14-5.01,5.88-7.76,4.45-7.05,6.12-15.35,4.64-23.55-.88-4.85-2.76-9.34-5.26-13.58,0-.02-.08-.07-.09-.09" fill="url(#uuid-319ade27-0be0-4c1c-bfb8-088c19c6fb36)"/><path d="M47.21,11.69c.47,.17,.74,.57,1.05,.91,4.21,4.52,7.16,9.72,8.46,15.8,1.05,4.9,.76,9.75-.63,14.54-1.52,5.25-4.17,9.92-7.45,14.24-1.65,2.18-3.46,4.23-4.89,6.59-2.13,3.52-3.48,7.27-3.47,11.42,0,1.71,.11,3.42,.63,5.07,.25,1.3,.69,2.54,1.27,3.73,.53,1.26,1.17,2.45,2.03,3.53,.38,.67,.88,1.24,1.39,1.8,.57,.71,1.2,1.35,1.9,1.93,.54,.49,1.08,.98,1.7,1.36,.96,.7,1.94,1.38,3.06,1.82,.79,.46,1.62,.8,2.49,1.04,.8,.35,1.63,.55,2.49,.7,.74,.17,1.51,.2,2.26,.24,1.28,.07,2.57,.13,3.85,.09,1.27-.04,2.48-.21,3.72-.53,.33-.08,.66-.17,.99-.24,.02,0,.13-.03,.12-.02-.2,.09-.45,.18-.74,.29-.92,.34-2.16,.79-2.59,.91-1.49,.41-3.01,.58-4.54,.71h-2.7c-3.79-.13-7.3-1.23-10.59-3.08-1.44-.81-2.74-1.8-4.01-2.86-.91-.76-1.72-1.61-2.48-2.5-1.03-1.21-1.93-2.52-2.71-3.92-.77-1.4-1.42-2.85-1.89-4.38-.37-1.21-.66-2.45-.86-3.7-.2-1.28-.29-2.59-.27-3.88,0-.56,.03-1.11,.09-1.66,.13-1.24,.4-2.47,.76-3.66,.06-.2,.12-.41,.19-.61,1.06-3.25,2.68-6.22,4.7-9,1.08-1.49,2.3-2.87,3.44-4.32,2.75-3.47,5.13-7.17,6.83-11.28,.75-1.8,1.32-3.66,1.67-5.58,.14-.78,.19-1.58,.23-2.37,.15-2.58,.12-5.13-.19-7.7v-.04c-.18-1.46-.4-2.9-.69-4.35-.34-1.61-.81-3.19-1.35-4.74-.78-2.24-1.87-4.35-3.27-6.3Z" fill="#ec2228"/><path d="M31.19,0c1.84,3.21,3.23,6.61,4.38,10.13,1.03,3.16,1.68,6.4,1.74,9.74,.1,5.74-1.73,10.81-5.14,15.31-2.75,3.63-6.08,6.64-9.63,9.46-7.66,6.11-12.3,14.11-13.85,23.91-.97,6.1-.47,12.08,1.58,17.91,.04,.11,.09,.21,.13,.31,.51,1.56,1.18,3.05,1.96,4.49,.56,1.15,1.19,2.27,1.93,3.31,.54,.93,1.17,1.79,1.85,2.62,.61,.85,1.27,1.66,2.01,2.41,.75,.91,1.58,1.75,2.47,2.52,.88,.88,1.82,1.68,2.83,2.4,.83,.7,1.7,1.32,2.63,1.86,.93,.66,1.91,1.23,2.94,1.72,.55,.26,1.07,.57,1.62,.84,.55,.26,1.11,.51,1.68,.74,1.17,.48,2.38,.85,3.6,1.21,.61,.18,1.22,.36,1.84,.5,.63,.15,1.26,.27,1.9,.38,1.26,.21,2.54,.35,3.82,.42s2.56,.06,3.84,0c1.14-.07,2.28-.19,3.41-.36,7.43-1.13,13.93-4.29,19.52-9.41,.63-.58,1.71-1.67,2.42-2.16-.27,.31-.65,.73-.77,.86-1.04,1.15-2.12,2.28-3.27,3.31-1.87,1.68-3.85,3.2-5.98,4.52-2.41,1.49-4.93,2.74-7.57,3.71-1.54,.57-3.11,1.05-4.72,1.4-1.6,.35-3.21,.62-4.83,.81-2.44,.29-4.88,.26-7.32,.18-1.38-.04-2.75-.28-4.12-.53-1.36-.25-2.68-.58-4.01-.93-1.83-.47-3.57-1.16-5.3-1.91-2.59-1.12-5.01-2.54-7.31-4.19-1.28-.92-2.48-1.93-3.67-2.98-.85-.75-1.61-1.57-2.41-2.37-1.33-1.32-2.49-2.81-3.58-4.34-1.56-2.2-2.91-4.53-4.03-6.99-1.17-2.57-2.08-5.23-2.71-7.98-.32-1.42-.62-2.86-.8-4.3-.32-2.6-.32-5.21-.19-7.83,.16-2.95,.63-5.85,1.4-8.7,1.68-6.22,4.63-11.74,8.8-16.58,2.98-3.45,6.53-6.15,10.29-8.66,6.59-4.38,10.97-10.46,12.57-18.41,1-4.95,.5-9.84-.92-14.65-.07-.25-.14-.5-.22-.75l-.21-.75c-.07-.25-.14-.5-.22-.75s-.15-.5-.23-.75c-.05-.15-.09-.29-.13-.44,.01-.05,0-.15-.02-.25h0Z" fill="#ec2228"/></svg>